<svg viewBox="0 0 200 200" fill="white" xmlns="http://www.w3.org/2000/svg">
<path fill-rule="evenodd" clip-rule="evenodd" d="M93.395 47.728a41.708 41.708 0 015.794-.52v-.009l.423.003c.142-.002.283-.003.425-.003v.009c2.381.048 4.713.296 6.979.729V47.9c0-1.908-.181-4.213-1.108-5.993-.443-.851-1.04-1.548-1.858-2.044-.819-.496-1.981-.864-3.672-.864-1.791 0-3.03.375-3.902.882-.867.505-1.488 1.208-1.944 2.053-.926 1.715-1.126 3.92-1.137 5.793zm17.621 1.182V47.9c0-2.001-.158-5.147-1.56-7.84-.721-1.385-1.786-2.68-3.334-3.618-1.547-.937-3.454-1.443-5.744-1.443-2.361 0-4.322.5-5.913 1.425-1.596.928-2.702 2.218-3.453 3.61-1.46 2.705-1.617 5.866-1.617 7.866v.676c-17.752 4.699-30.837 20.872-30.837 40.1v.051l.003.05c.758 15.094.07 24.223-1.574 30.757-1.626 6.465-4.21 10.503-7.573 15.462-2.347 3.463-3.618 7.007-2.42 9.923 1.275 3.102 4.734 4.213 8.65 4.213h27.99c.074 9.183 7.54 16.605 16.741 16.605 9.2 0 16.667-7.422 16.74-16.605h26.466c3.917 0 7.376-1.111 8.651-4.213 1.197-2.916-.073-6.46-2.421-9.923-3.362-4.959-5.947-8.997-7.573-15.462-1.644-6.534-2.332-15.663-1.573-30.757l.003-.05v-.05c0-18.799-12.506-34.677-29.652-39.768zm2.099 100.223h-25.48c.073 6.974 5.749 12.605 12.74 12.605 6.991 0 12.667-5.631 12.74-12.605zm30.466-4c3.538 0 4.657-1.019 4.951-1.734.37-.902.201-2.865-2.031-6.157-3.415-5.037-6.337-9.556-8.142-16.731-1.785-7.097-2.453-16.677-1.691-31.883-.027-20.534-16.568-37.2-37.056-37.426-20.486.227-37.027 16.892-37.054 37.426.762 15.206.094 24.786-1.691 31.883-1.805 7.175-4.727 11.694-8.142 16.731-2.232 3.292-2.402 5.255-2.031 6.157.294.715 1.412 1.734 4.95 1.734h87.937zm-87.507-99.58A61.71 61.71 0 0038 89.185a2 2 0 11-4 0 65.708 65.708 0 0119.245-46.462l2.829 2.828zm90.032-2.83a65.71 65.71 0 0119.245 46.462 2 2 0 11-4 .001 61.71 61.71 0 00-18.074-43.634l2.829-2.828zM64.46 53.94a49.848 49.848 0 00-14.6 35.247 2 2 0 11-4 0A53.846 53.846 0 0161.63 51.11l2.829 2.829zm73.259-2.829a53.835 53.835 0 0115.772 38.076 2 2 0 01-4 0 49.85 49.85 0 00-14.6-35.247l2.828-2.829z"/>
</svg>